<svg width="41" height="40" viewBox="0 0 41 40" fill="none" xmlns="http://www.w3.org/2000/svg">
<g id="css3-original 1">
<path id="Vector" d="M6.02633 35.6634L2.80591 0.422485H38.194L34.9704 35.6581L20.4785 39.5778L6.02633 35.6634Z" fill="#1572B6"/>
<path id="Vector_2" d="M20.5003 36.5819L32.2106 33.4144L34.9656 3.30374H20.5003V36.5819Z" fill="#33A9DC"/>
<path id="Vector_3" d="M20.5003 16.0716H26.3627L26.7675 11.6456H20.5003V7.32343H31.6094L31.503 8.48311L30.414 20.3937H20.5003V16.0716Z" fill="white"/>
<path id="Vector_4" d="M20.5266 27.2965L20.507 27.3022L15.5732 26.0025L15.2577 22.5553H10.8112L11.4316 29.3419L20.5064 31.799L20.5266 31.7934V27.2965Z" fill="#EBEBEB"/>
<path id="Vector_5" d="M25.986 20.2109L25.4524 25.9991L20.5112 27.3003V31.7972L29.5934 29.3416L29.66 28.6112L30.4307 20.2109H25.986Z" fill="white"/>
<path id="Vector_6" d="M20.5154 7.32343V11.6456H9.81439L9.72567 10.6744L9.52387 8.48311L9.41785 7.32343H20.5154ZM20.5003 16.0722V20.3944H15.6287L15.54 19.4231L15.3379 17.2319L15.2322 16.0722H20.5003Z" fill="#EBEBEB"/>
</g>
</svg>
