<svg width="15" height="23" viewBox="0 0 15 23" fill="none" xmlns="http://www.w3.org/2000/svg">
<g id="Group">
<g id="5">
<g id="path1_fill-link">
<path id="path1_fill" d="M3.85415 22.718C5.86769 22.718 7.49998 21.0438 7.49998 18.9786V15.2393H3.85415C1.84061 15.2393 0.208313 16.9135 0.208313 18.9786C0.208313 21.0438 1.84061 22.718 3.85415 22.718Z" fill="#0ACF83"/>
</g>
</g>
<g id="4">
<g id="path2_fill-link">
<path id="path2_fill" d="M0.208313 11.5C0.208313 9.43483 1.84061 7.76068 3.85415 7.76068H7.49998V15.2393H3.85415C1.84061 15.2393 0.208313 13.5652 0.208313 11.5Z" fill="#A259FF"/>
</g>
</g>
<g id="3">
<g id="path2_fill-link_2">
<path id="path2_fill_2" d="M0.357117 3.93725C0.357117 1.87209 1.98941 0.197937 4.00295 0.197937H7.64878V7.67657H4.00295C1.98941 7.67657 0.357117 6.00242 0.357117 3.93725Z" fill="#F24E1E"/>
</g>
</g>
<g id="2">
<g id="path3_fill-link">
<path id="path3_fill" d="M7.5 0.282043H11.1458C13.1594 0.282043 14.7917 1.95619 14.7917 4.02136C14.7917 6.08653 13.1594 7.76068 11.1458 7.76068H7.5V0.282043Z" fill="#FF7262"/>
</g>
</g>
<g id="1">
<g id="path4_fill-link">
<path id="path4_fill" d="M14.7917 11.5C14.7917 13.5652 13.1594 15.2393 11.1458 15.2393C9.13229 15.2393 7.5 13.5652 7.5 11.5C7.5 9.43483 9.13229 7.76068 11.1458 7.76068C13.1594 7.76068 14.7917 9.43483 14.7917 11.5Z" fill="#1ABCFE"/>
</g>
</g>
</g>
</svg>
