<svg width="42" height="40" viewBox="0 0 42 40" fill="none" xmlns="http://www.w3.org/2000/svg">
<g id="html5-original 1">
<path id="Vector" d="M6.24651 35.5863L2.96362 0.519073H39.0364L35.7499 35.5809L20.978 39.4809L6.24651 35.5863Z" fill="#E44D26"/>
<path id="Vector_2" d="M21 36.5L32.9365 33.3481L35.745 3.38626H21V36.5Z" fill="#F16529"/>
<path id="Vector_3" d="M21 16.3922H15.0242L14.6114 11.9878H21V7.68719H9.67609L9.78437 8.84094L10.8941 20.6931H21V16.3922ZM21 27.5619L20.98 27.5672L15.9508 26.2734L15.6296 22.8438H11.0959L11.7285 29.5966L20.9793 32.0422L21 32.0369V27.5619Z" fill="#EBEBEB"/>
<path id="Vector_4" d="M20.9843 16.3922V20.6931H26.545L26.021 26.2709L20.9843 27.5656V32.0403L30.2423 29.5966L30.3102 28.87L31.3714 17.5472L31.4813 16.3922H30.2646H20.9843ZM20.9843 7.68719V11.9878H31.8924L31.983 11.0216L32.1891 8.84094L32.297 7.68719H20.9843Z" fill="white"/>
</g>
</svg>
